HIERARCHY
ROOT pelvis
{
    OFFSET 0.0 96.08435821533203 0.0
    CHANNELS 6 Xposition Yposition Zposition Zrotation Yrotation Xrotation

    JOINT left_hip
    {
        OFFSET -4.921870708465576 -5.130958557128906 3.446061611175537
        CHANNELS 3 Zrotation Yrotation Xrotation

        JOINT left_knee
        {
            OFFSET -4.649590969085693 -40.34756088256836 5.330539226531982
            CHANNELS 3 Zrotation Yrotation Xrotation

            JOINT left_ankle
            {
                OFFSET 6.302630424499512 -40.65017318725586 12.716626167297363
                CHANNELS 3 Zrotation Yrotation Xrotation

                JOINT left_foot
                {
                    OFFSET -7.921489715576172 -7.7018842697143555 -8.565654754638672
                    CHANNELS 3 Zrotation Yrotation Xrotation

                    End Site
                    {
                        OFFSET 0 0 0
                    }
                }
            }
        }
    }

    JOINT right_hip
    {
        OFFSET 7.089080810546875 -4.0766754150390625 2.0615856647491455
        CHANNELS 3 Zrotation Yrotation Xrotation

        JOINT right_knee
        {
            OFFSET 8.217405319213867 -39.7088508605957 -4.349353313446045
            CHANNELS 3 Zrotation Yrotation Xrotation

            JOINT right_ankle
            {
                OFFSET -1.3544797897338867 -40.209346771240234 0.14496493339538574
                CHANNELS 3 Zrotation Yrotation Xrotation

                JOINT right_foot
                {
                    OFFSET 8.24019718170166 -8.476435661315918 -10.465839385986328
                    CHANNELS 3 Zrotation Yrotation Xrotation

                    End Site
                    {
                        OFFSET 0 0 0
                    }
                }
            }
        }
    }

    JOINT spine1
    {
        OFFSET -0.9297748804092407 17.30590057373047 2.1690239906311035
        CHANNELS 3 Zrotation Yrotation Xrotation

        JOINT spine2
        {
            OFFSET -1.914084553718567 11.426872253417969 -5.6376752853393555
            CHANNELS 3 Zrotation Yrotation Xrotation

            JOINT spine3
            {
                OFFSET -0.5670003890991211 4.369392395019531 -1.535980224609375
                CHANNELS 3 Zrotation Yrotation Xrotation

                JOINT left_collar
                {
                    OFFSET -9.079269409179688 8.533721923828125 -1.3516225814819336
                    CHANNELS 3 Zrotation Yrotation Xrotation

                    JOINT left_shoulder
                    {
                        OFFSET -13.109237670898438 0.85162353515625 0.36411094665527344
                        CHANNELS 3 Zrotation Yrotation Xrotation

                        JOINT left_elbow
                        {
                            OFFSET -6.698644638061523 -21.901626586914062 2.0577542781829834
                            CHANNELS 3 Zrotation Yrotation Xrotation

                            JOINT left_wrist
                            {
                                OFFSET 8.380794525146484 -7.2890777587890625 -23.536325454711914
                                CHANNELS 3 Zrotation Yrotation Xrotation

                                End Site
                                {
                                    OFFSET 0 0 0
                                }
                            }
                        }
                    }
                }

                JOINT right_collar
                {
                    OFFSET 6.8288469314575195 9.800155639648438 -3.610966205596924
                    CHANNELS 3 Zrotation Yrotation Xrotation

                    JOINT right_shoulder
                    {
                        OFFSET 12.227510452270508 1.444488525390625 -1.2139320373535156
                        CHANNELS 3 Zrotation Yrotation Xrotation

                        JOINT right_elbow
                        {
                            OFFSET 8.212034225463867 -19.213760375976562 11.527243614196777
                            CHANNELS 3 Zrotation Yrotation Xrotation

                            JOINT right_wrist
                            {
                                OFFSET -4.130088806152344 -23.793907165527344 -15.067459106445312
                                CHANNELS 3 Zrotation Yrotation Xrotation

                                End Site
                                {
                                    OFFSET 0 0 0
                                }
                            }
                        }
                    }
                }

                JOINT neck
                {
                    OFFSET -2.4599201679229736 20.277938842773438 -4.931830883026123
                    CHANNELS 3 Zrotation Yrotation Xrotation

                    JOINT head
                    {
                        OFFSET 0.03335762023925781 12.56024169921875 -4.741053581237793
                        CHANNELS 3 Zrotation Yrotation Xrotation

                        End Site
                        {
                            OFFSET 0 0 0
                        }
                    }
                }
            }
        }
    }

}

MOTION
Frames: 18
Frame Time: 0.050000
0.000000 96.084358 0.000000 0.000000 0.000000 0.000000 0.000000 0.000000 0.000000 0.000000 0.000000 0.000000 0.000000 0.000000 0.000000 0.000000 0.000000 0.000000 0.000000 0.000000 0.000000 0.000000 0.000000 0.000000 0.000000 0.000000 0.000000 0.000000 0.000000 0.000000 0.000000 0.000000 0.000000 0.000000 0.000000 0.000000 0.000000 0.000000 0.000000 0.000000 0.000000 0.000000 0.000000 0.000000 0.000000 0.000000 0.000000 0.000000 0.000000 0.000000 0.000000 0.000000 0.000000 0.000000 0.000000 0.000000 0.000000 0.000000 0.000000 0.000000 0.000000 0.000000 0.000000 0.000000 0.000000 0.000000 0.000000 0.000000 0.000000
-1.223725 95.988075 -0.779221 0.000000 0.000000 -0.000000 0.017972 -0.042020 -0.503087 -0.302045 -0.378466 0.136978 -0.168556 1.012257 0.204695 0.000000 0.000000 -0.000000 -0.393233 -0.401849 -0.211683 -0.307920 -0.302880 0.202409 -0.105912 0.898881 0.258630 0.000000 0.000000 -0.000000 -0.635188 0.943651 0.465834 0.217271 -0.150453 -0.427102 0.000000 0.000000 -0.000000 -0.973060 2.692308 0.778150 -2.407125 2.364512 4.508213 -0.961599 0.066102 1.848079 0.000000 0.000000 -0.000000 -0.418676 -0.472773 -0.520612 -1.861917 -2.337070 1.581273 -1.192527 0.930205 3.120747 0.000000 0.000000 -0.000000 -0.429074 0.616087 0.506507 0.000000 0.000000 -0.000000
-2.484725 95.867142 -1.707657 0.000000 0.000000 -0.000000 0.567616 0.259654 -1.978477 -1.681584 -1.765973 0.534324 -0.186948 3.476868 -0.719556 0.000000 0.000000 -0.000000 -1.721307 -1.749254 -0.888319 -0.659756 -0.641072 0.715934 -0.749805 2.504138 -0.020465 0.000000 0.000000 -0.000000 -2.389140 3.362809 2.208956 0.525681 -0.178843 -2.759796 0.000000 0.000000 -0.000000 -4.209120 10.044380 3.510170 -8.803103 8.344136 16.214794 -1.387753 2.385795 8.645560 0.000000 0.000000 -0.000000 -0.821265 -1.065875 -1.036233 -8.730920 -11.149032 7.872606 -4.349227 5.502387 9.349399 0.000000 0.000000 -0.000000 -1.133507 1.579149 2.215380 0.000000 0.000000 -0.000000
-3.644640 96.148834 -3.047369 0.000000 0.000000 -0.000000 1.298552 0.812504 -2.524495 -3.753717 -2.751263 -1.997458 -0.933780 5.816725 -1.823354 0.000000 0.000000 -0.000000 -2.285381 -2.102181 -2.034642 -0.927390 -0.711786 0.314756 -0.865620 2.315313 -0.663235 0.000000 0.000000 -0.000000 -5.023899 7.002342 3.828003 1.804759 -1.810915 -5.343692 0.000000 0.000000 -0.000000 -8.736511 16.986611 7.574812 -15.631646 11.110960 20.844611 -1.054476 8.604049 19.780752 0.000000 0.000000 -0.000000 0.223949 -0.765439 0.158689 -13.661273 -21.159791 15.780872 -7.599528 9.530774 16.581254 0.000000 0.000000 -0.000000 -2.527442 3.425278 3.664030 0.000000 0.000000 -0.000000
-4.463883 96.653244 -4.750292 0.000000 0.000000 -0.000000 1.565107 1.143626 -1.745717 -5.020138 -2.244889 -7.119417 -2.651658 7.865307 -0.594342 0.000000 0.000000 -0.000000 -2.256985 -1.826263 -3.049655 -1.407616 -0.951108 -0.567600 -0.855133 1.103580 -0.910180 0.000000 0.000000 -0.000000 -7.648000 10.369721 5.589917 3.468929 -4.162878 -5.901747 0.000000 0.000000 -0.000000 -12.992171 22.694750 11.468446 -20.892512 12.570372 20.046950 -4.156949 21.716758 29.214639 0.000000 0.000000 -0.000000 1.934637 0.639758 2.223665 -13.785860 -27.026077 22.706881 -8.155451 9.289932 21.450194 0.000000 0.000000 -0.000000 -3.638409 4.805172 5.072248 0.000000 0.000000 -0.000000
-5.044965 97.225708 -6.499210 0.000000 0.000000 -0.000000 1.512397 1.374501 0.264312 -6.341128 -1.258611 -13.309149 -4.247946 10.337340 0.696256 0.000000 0.000000 -0.000000 -2.184621 -1.548277 -3.897259 -1.600746 -0.932832 -1.284942 -0.638291 0.433571 -1.318269 0.000000 0.000000 -0.000000 -9.608104 12.740444 6.922851 4.453709 -5.371896 -5.421204 0.000000 0.000000 -0.000000 -15.079439 26.967485 13.330191 -23.539047 13.918797 16.031248 -9.369834 37.413066 36.862534 0.000000 0.000000 -0.000000 2.763478 3.318195 3.484344 -12.044502 -27.155983 27.273170 -5.685757 6.455430 24.084338 0.000000 0.000000 -0.000000 -4.204943 5.411675 6.518305 0.000000 0.000000 -0.000000
-5.484791 97.737595 -8.050868 0.000000 0.000000 -0.000000 0.999948 1.294165 3.058922 -7.557136 -0.120470 -19.779986 -5.159952 12.773080 0.276460 0.000000 0.000000 -0.000000 -2.113698 -1.278255 -4.740578 -1.998099 -1.073460 -1.561060 -0.065234 1.194063 -1.443244 0.000000 0.000000 -0.000000 -11.250836 14.686567 7.930408 4.998801 -5.864022 -4.752304 0.000000 0.000000 -0.000000 -14.629698 29.375339 12.798114 -24.285714 14.170441 11.642702 -12.823819 48.805139 38.294943 0.000000 0.000000 -0.000000 2.927171 7.091315 4.184216 -12.286237 -23.092688 26.861922 -3.398829 4.038320 27.920644 0.000000 0.000000 -0.000000 -4.074435 5.139855 7.672068 0.000000 0.000000 -0.000000
-5.773263 98.079094 -9.183012 0.000000 0.000000 -0.000000 -0.370685 0.456739 6.780966 -8.962711 0.520389 -25.757620 -5.570201 15.983898 -1.118829 0.000000 0.000000 -0.000000 -1.855033 -0.802272 -5.659775 -2.678326 -1.388866 -1.261315 0.711740 2.926535 -1.629578 0.000000 0.000000 -0.000000 -12.611697 16.409358 8.406211 5.384239 -6.079804 -3.919459 0.000000 0.000000 -0.000000 -13.191926 30.895803 11.334477 -25.047124 13.005629 6.294309 -12.842882 56.814361 33.960016 0.000000 0.000000 -0.000000 3.459955 10.975866 5.363574 -13.637842 -17.215632 23.091576 -1.530882 2.961465 32.985405 0.000000 0.000000 -0.000000 -3.654944 4.526098 8.769597 0.000000 0.000000 -0.000000
-5.902790 98.012863 -9.804244 0.000000 0.000000 -0.000000 -2.900710 -1.693951 11.195159 -9.940042 0.520387 -31.255137 -6.102646 20.543533 -1.733375 0.000000 0.000000 -0.000000 -1.730188 -0.467159 -6.614196 -3.430481 -1.762624 0.337022 1.156791 5.838744 -2.876239 0.000000 0.000000 -0.000000 -13.884676 17.916468 9.015772 5.505591 -5.916335 -3.215927 0.000000 0.000000 -0.000000 -13.056284 32.938446 11.123881 -27.299416 11.910480 1.326793 -9.535307 61.574150 24.999377 0.000000 0.000000 -0.000000 4.570505 15.196043 7.318490 -15.777255 -11.180777 18.421746 0.384729 2.510205 38.258174 0.000000 0.000000 -0.000000 -3.189811 3.929146 9.121883 0.000000 0.000000 -0.000000
-5.878742 98.088974 -10.093592 0.000000 0.000000 -0.000000 -5.065844 -3.862838 14.305039 -14.845130 -2.808532 -31.874775 -4.649100 28.231283 -5.271225 0.000000 0.000000 -0.000000 -1.329504 0.128471 -7.534184 -4.268917 -2.221752 1.813742 1.513895 8.015974 -3.993148 0.000000 0.000000 -0.000000 -14.155244 18.650620 8.297567 5.354109 -5.434765 -2.258436 0.000000 0.000000 -0.000000 -12.335690 35.302672 10.329051 -29.191384 11.696069 -1.208772 -0.261755 61.709535 8.924781 0.000000 0.000000 -0.000000 6.308001 18.989007 9.995458 -18.819301 -5.987039 13.088464 1.766338 3.475679 42.166865 0.000000 0.000000 -0.000000 -2.302641 2.828024 9.426678 0.000000 0.000000 -0.000000
-5.606427 98.264801 -10.160418 0.000000 0.000000 -0.000000 -6.560681 -5.518010 15.624655 -21.510331 -8.429991 -27.998498 0.516216 36.901875 -12.977807 0.000000 0.000000 -0.000000 -0.449144 1.162116 -8.371509 -5.224091 -2.801436 2.868713 2.078586 9.689313 -4.881368 0.000000 0.000000 -0.000000 -13.546902 18.513285 6.817900 4.851342 -4.697260 -1.640656 0.000000 0.000000 -0.000000 -11.264060 37.771373 9.185738 -30.366940 12.416716 -1.777577 7.643382 58.164744 -4.329338 0.000000 0.000000 -0.000000 8.202992 21.583932 12.681080 -21.290185 -2.242728 8.676089 2.973516 4.822495 44.155977 0.000000 0.000000 -0.000000 -1.592986 1.953638 9.730716 0.000000 0.000000 -0.000000
-4.986682 98.325462 -10.117538 0.000000 0.000000 -0.000000 -7.982164 -7.144123 15.446721 -25.019362 -12.997318 -22.834649 6.470978 42.747601 -20.582853 0.000000 0.000000 -0.000000 0.087851 1.782956 -8.913712 -5.802409 -3.182054 3.805823 2.538730 11.385085 -5.827905 0.000000 0.000000 -0.000000 -13.046416 18.298008 5.775041 4.499660 -4.304041 -1.605530 0.000000 0.000000 -0.000000 -10.510746 41.029300 8.325864 -31.744922 13.853020 -0.696345 11.828541 54.126915 -11.955533 0.000000 0.000000 -0.000000 9.642008 23.882678 14.830203 -24.177272 -0.036933 5.605100 3.336542 6.594975 44.846056 0.000000 0.000000 -0.000000 -1.134077 1.394319 9.874014 0.000000 0.000000 -0.000000
-3.991594 98.049416 -10.070370 0.000000 0.000000 -0.000000 -9.195630 -8.509212 14.985675 -25.886157 -15.258643 -19.312279 11.578770 47.140220 -26.027552 0.000000 0.000000 -0.000000 0.947156 2.645452 -9.108462 -6.225423 -3.505153 4.284726 2.979721 12.356642 -6.734247 0.000000 0.000000 -0.000000 -12.429550 17.798003 4.923379 4.084803 -3.926881 -1.958895 0.000000 0.000000 -0.000000 -10.307537 44.717025 7.993453 -33.313716 15.739940 0.963726 14.252483 50.971052 -15.532366 0.000000 0.000000 -0.000000 10.897700 26.122630 16.799645 -26.471263 1.577909 3.833420 4.348650 8.360035 44.066014 0.000000 0.000000 -0.000000 -1.160521 1.441395 9.216220 0.000000 0.000000 -0.000000
-2.546357 97.734062 -10.087461 0.000000 0.000000 -0.000000 -9.574085 -8.899924 14.134696 -25.560392 -15.680511 -17.566623 15.140804 49.684774 -28.968794 0.000000 0.000000 -0.000000 2.175992 3.830361 -9.139764 -6.505844 -3.696932 4.162136 3.619051 12.412591 -6.881592 0.000000 0.000000 -0.000000 -11.572531 16.956303 3.978098 3.545830 -3.377059 -2.313890 0.000000 0.000000 -0.000000 -9.368045 48.111555 6.947519 -34.523100 17.323884 3.283237 16.423812 48.191548 -18.325573 0.000000 0.000000 -0.000000 11.594494 28.200324 18.137336 -28.528941 2.801681 2.977419 5.307173 11.195488 42.100530 0.000000 0.000000 -0.000000 -1.198226 1.519077 7.916548 0.000000 0.000000 -0.000000
-0.670436 97.531601 -10.185516 0.000000 0.000000 -0.000000 -9.165528 -8.403225 12.846378 -24.285037 -14.799288 -16.691230 14.826041 50.073821 -27.293156 0.000000 0.000000 -0.000000 3.454302 5.047599 -9.098433 -6.385338 -3.507580 3.746455 4.151776 11.286001 -6.673304 0.000000 0.000000 -0.000000 -10.512924 15.804844 2.947408 2.945035 -2.693405 -2.520156 0.000000 0.000000 -0.000000 -8.196205 50.514002 5.706419 -34.925384 18.658425 5.858859 17.963405 45.549531 -20.385717 0.000000 0.000000 -0.000000 11.729803 29.657293 18.699913 -30.027774 3.409826 2.866412 6.032330 14.729715 39.791906 0.000000 0.000000 -0.000000 -1.170800 1.517457 6.574800 0.000000 0.000000 -0.000000
1.566633 97.392502 -10.395413 0.000000 0.000000 -0.000000 -8.287832 -7.423696 11.276076 -22.297448 -13.288474 -15.737131 12.124110 48.848320 -22.762267 0.000000 0.000000 -0.000000 4.724844 6.259709 -9.119893 -5.865347 -2.919592 3.274415 4.538440 9.206448 -6.566596 0.000000 0.000000 -0.000000 -9.341939 14.344174 2.105698 2.264488 -1.858265 -2.639272 0.000000 0.000000 -0.000000 -7.017147 51.717000 4.498848 -34.293859 19.933493 8.607951 18.899398 42.898767 -22.050943 0.000000 0.000000 -0.000000 11.294722 30.327466 18.400802 -31.080850 2.870018 3.510790 6.332758 19.260250 37.194623 0.000000 0.000000 -0.000000 -1.214954 1.604012 5.427542 0.000000 0.000000 -0.000000
4.095955 97.265549 -10.745021 0.000000 0.000000 -0.000000 -7.240086 -6.319270 9.505797 -19.520501 -11.392872 -14.214770 8.608307 45.670391 -17.251541 0.000000 0.000000 -0.000000 6.017597 7.499296 -9.316547 -4.968769 -1.959294 2.975890 4.739313 6.290423 -6.685196 0.000000 0.000000 -0.000000 -8.149863 12.622549 1.699185 1.497451 -0.879447 -2.733716 0.000000 0.000000 -0.000000 -5.864490 51.390906 3.370246 -32.621169 20.818162 11.462431 19.001523 40.952241 -23.256344 0.000000 0.000000 -0.000000 10.203082 29.896041 17.032260 -31.666414 0.643867 4.991834 5.730121 24.459822 34.838311 0.000000 0.000000 -0.000000 -1.368823 1.827322 4.705585 0.000000 0.000000 -0.000000
6.805507 97.141449 -11.246520 0.000000 0.000000 -0.000000 -6.219377 -5.307873 7.649496 -16.176223 -9.335700 -12.130320 5.390416 40.736012 -12.088856 0.000000 0.000000 -0.000000 7.210842 8.639359 -9.655599 -3.731453 -0.659370 2.630611 4.876674 2.838824 -6.926164 0.000000 0.000000 -0.000000 -7.007540 10.783374 1.751829 0.681393 0.184227 -2.637033 0.000000 0.000000 -0.000000 -4.765138 49.126656 2.364020 -29.912398 21.032380 13.624261 18.436272 40.614553 -23.595885 0.000000 0.000000 -0.000000 8.484740 28.031374 14.553410 -31.942257 -3.682221 7.181914 3.600451 30.073385 32.961627 0.000000 0.000000 -0.000000 -1.718132 2.301352 4.429617 0.000000 0.000000 -0.000000
